<?xml version="1.0" encoding="UTF-8" standalone="no"?>
<!-- Created with Inkscape (http://www.inkscape.org/) -->

<svg
   xmlns:dc="http://purl.org/dc/elements/1.1/"
   xmlns:cc="http://creativecommons.org/ns#"
   xmlns:rdf="http://www.w3.org/1999/02/22-rdf-syntax-ns#"
   xmlns:svg="http://www.w3.org/2000/svg"
   xmlns="http://www.w3.org/2000/svg"
   xmlns:sodipodi="http://sodipodi.sourceforge.net/DTD/sodipodi-0.dtd"
   xmlns:inkscape="http://www.inkscape.org/namespaces/inkscape"
   id="svg2"
   version="1.1"
   inkscape:version="0.48.5 r10040"
   width="100.68875"
   height="141.73325"
   xml:space="preserve"
   sodipodi:docname="javascript-seeklogo.svg"><metadata
     id="metadata8"><rdf:RDF><cc:Work
         rdf:about=""><dc:format>image/svg+xml</dc:format><dc:type
           rdf:resource="http://purl.org/dc/dcmitype/StillImage" /><dc:title></dc:title></cc:Work></rdf:RDF></metadata><defs
     id="defs6"><clipPath
       clipPathUnits="userSpaceOnUse"
       id="clipPath36"><path
         d="m 0,141.732 141.732,0 L 141.732,0 0,0 0,141.732 z"
         id="path38"
         inkscape:connector-curvature="0" /></clipPath></defs><sodipodi:namedview
     pagecolor="#ffffff"
     bordercolor="#666666"
     borderopacity="1"
     objecttolerance="10"
     gridtolerance="10"
     guidetolerance="10"
     inkscape:pageopacity="0"
     inkscape:pageshadow="2"
     inkscape:window-width="1920"
     inkscape:window-height="1022"
     id="namedview4"
     showgrid="false"
     inkscape:zoom="3.767724"
     inkscape:cx="46.50994"
     inkscape:cy="68.791694"
     inkscape:window-x="-4"
     inkscape:window-y="-3"
     inkscape:window-maximized="1"
     inkscape:current-layer="g10"
     fit-margin-top="0"
     fit-margin-left="0"
     fit-margin-right="0"
     fit-margin-bottom="0" /><g
     id="g10"
     inkscape:groupmode="layer"
     inkscape:label="javascript-seeklogo.com"
     transform="matrix(1.25,0,0,-1.25,-38.23825,159.44875)"><g
       id="g12"
       transform="translate(111.1416,105.3364)"><path
         d="m 0,0 -40.275,0 -40.276,0 7.548,-81.885 32.728,-9.279 32.715,9.279 L 0,0 z"
         style="fill:#e7a63b;fill-opacity:1;fill-rule:nonzero;stroke:none"
         id="path14"
         inkscape:connector-curvature="0" /></g><g
       id="g16"
       transform="translate(70.8662,98.666)"><path
         d="M 0,0 0,-77.559 26.502,-70.046 32.956,0 0,0 z"
         style="fill:#f1c137;fill-opacity:1;fill-rule:nonzero;stroke:none"
         id="path18"
         inkscape:connector-curvature="0" /></g><g
       id="g20"
       transform="translate(91.9512,88.6182)"><path
         d="m 0,0 -40.763,0 -2.833,-30.66 0.06,0.192 34.626,0 -1.13,-12.969 -11.045,-3.184 -11.214,3.232 -0.673,7.849 -10.18,0 1.455,-15.685 20.612,-5.853 20.612,5.853 2.837,30.781 -36.742,0 0.468,10.264 25.503,0 0.375,-5.875 10.271,0 L 0,0 z"
         style="fill:#ffffff;fill-opacity:1;fill-rule:nonzero;stroke:none"
         id="path22"
         inkscape:connector-curvature="0" /></g><g
       id="g24"
       transform="translate(58.9795,53.0781)"><path
         d="m 0,0 -10.18,0 1.454,-15.685 20.613,-5.84 0,10.444 L 0.673,-7.849 0,0 z m 11.887,35.54 -19.679,0 -2.833,-30.66 0.061,0.192 22.451,0 0,10.024 -11.876,0 0.468,10.264 11.408,0 0,10.18 z"
         style="fill:#ebebec;fill-opacity:1;fill-rule:nonzero;stroke:none"
         id="path26"
         inkscape:connector-curvature="0" /></g><g
       id="g28"
       transform="translate(63.0278,117.415)"><path
         d="m 0,0 -7.163,0 0,-5.144 7.163,0 3.835,0 1.298,0 0,15.288 L 0,10.144 0,0 z"
         style="fill:#373535;fill-opacity:1;fill-rule:nonzero;stroke:none"
         id="path30"
         inkscape:connector-curvature="0" /></g><g
       id="g32"><g
         id="g34"
         clip-path="url(#clipPath36)"><g
           id="g40"
           transform="translate(85.8682,127.4814)"><path
             d="m 0,0 -12.494,0 0,-5.354 c 1.67,-1.671 2.543,-2.471 4.961,-4.889 -1.414,0 -4.961,-0.005 -4.961,-0.005 l 0,-4.884 12.494,0 0,4.885 -4.99,4.893 4.99,0 L 0,0 z"
             style="fill:#373535;fill-opacity:1;fill-rule:nonzero;stroke:none"
             id="path42"
             inkscape:connector-curvature="0" /></g></g></g></g></svg>